<?xml version="1.0" encoding="UTF-8"?>
<svg width="64px" height="50px" viewBox="0 0 64 50" version="1.1" xmlns="http://www.w3.org/2000/svg" xmlns:xlink="http://www.w3.org/1999/xlink">
    <title>Observability</title>
    <g id="Page-1" stroke="none" stroke-width="1" fill="none" fill-rule="evenodd">
        <g id="Blogs-_v2" transform="translate(-588.000000, -1811.000000)">
            <g id="Group-11" transform="translate(0.000000, 1612.000000)">
                <g id="Observability" transform="translate(589.000000, 200.000000)">
                    <g id="Group">
                        <g transform="translate(33.677419, 17.187097)">
                            <path d="M11.8451613,2.32258065 C14.3225806,2.32258065 16.6451613,3.2516129 18.5032258,5.10967742 C21.6,8.20645161 22.0645161,13.1612903 19.8967742,16.7225806 L26.2451613,22.7612903 C27.3290323,23.8451613 27.0193548,24.9290323 26.2451613,25.7032258 L25.9354839,26.0129032 C25.4709677,26.4774194 25.0064516,26.7870968 24.3870968,26.7870968 C23.9225806,26.7870968 23.4580645,26.6322581 22.9935484,26.0129032 L16.9548387,19.6645161 C15.4064516,20.5935484 13.7032258,21.0580645 12,21.0580645 C9.52258065,21.0580645 7.2,20.1290323 5.34193548,18.2709677 C1.62580645,14.5548387 1.62580645,8.67096774 5.34193548,4.95483871 C7.04516129,3.2516129 9.52258065,2.32258065 11.8451613,2.32258065 M11.8451613,-1.1001952e-14 C8.7483871,-1.1001952e-14 5.80645161,1.23870968 3.48387097,3.40645161 C-1.16129032,8.0516129 -1.16129032,15.483871 3.48387097,19.9741935 C5.6516129,22.1419355 8.59354839,23.3806452 11.8451613,23.3806452 C13.3935484,23.3806452 14.9419355,23.0709677 16.3354839,22.4516129 L21.1354839,27.5612903 C22.2193548,28.8 23.4580645,28.9548387 24.2322581,28.9548387 C25.316129,28.9548387 26.4,28.4903226 27.3290323,27.5612903 L27.6387097,27.2516129 C28.8774194,26.0129032 29.0322581,24.7741935 29.0322581,24 C29.0322581,23.2258065 28.7225806,21.9870968 27.483871,20.9032258 L22.3741935,16.1032258 C24.2322581,11.7677419 23.3032258,6.65806452 19.8967742,3.2516129 C18.0387097,1.23870968 15.0967742,-1.1001952e-14 11.8451613,-1.1001952e-14 L11.8451613,-1.1001952e-14 Z" id="Shape" fill="#0B3FA5" fill-rule="nonzero"></path>
                            <circle id="Oval" stroke="#0B3FA5" stroke-width="1.5" stroke-linecap="square" stroke-linejoin="round" cx="12" cy="11.9225806" r="6.3483871"></circle>
                        </g>
                        <path d="M39.9483871,41.9612903 C35.7677419,45.6774194 30.1935484,48 24,48 C10.683871,48 -5.50097602e-15,37.316129 -5.50097602e-15,24 C-5.50097602e-15,10.683871 10.8387097,0 24.1548387,0 C33.9096774,0 42.2709677,5.72903226 45.9870968,14.0903226" id="Path" stroke="#0B3FA5" stroke-width="1.5" stroke-linejoin="round"></path>
                    </g>
                    <polyline id="Path" stroke="#0B3FA5" stroke-width="1.5" stroke-linecap="square" stroke-linejoin="round" points="0.15483871 24 13.0064516 24 16.1032258 14.8645161 19.3548387 31.7419355 26.0129032 6.3483871 29.7290323 24 34.683871 24"></polyline>
                </g>
            </g>
        </g>
    </g>
</svg>