<?xml version="1.0" encoding="UTF-8"?>
<svg width="46px" height="46px" viewBox="0 0 46 46" version="1.1" xmlns="http://www.w3.org/2000/svg" xmlns:xlink="http://www.w3.org/1999/xlink">
    <title>IncidentManagement</title>
    <g id="Page-1" stroke="none" stroke-width="1" fill="none" fill-rule="evenodd">
        <g id="Blogs-_v2" transform="translate(-597.000000, -1981.000000)" fill="#0B3FA5" fill-rule="nonzero">
            <g id="Group-11" transform="translate(0.000000, 1612.000000)">
                <g id="IncidentManagement" transform="translate(597.000000, 369.000000)">
                    <path d="M23,1.40243902 C34.9674797,1.40243902 44.597561,11.0325203 44.597561,23 C44.597561,34.9674797 34.9674797,44.597561 23,44.597561 C11.0325203,44.597561 1.40243902,34.9674797 1.40243902,23 C1.40243902,11.0325203 11.0325203,1.40243902 23,1.40243902 M23,0 C10.2845528,0 0,10.2845528 0,23 C0,35.7154472 10.2845528,46 23,46 C35.7154472,46 46,35.7154472 46,23 C46,10.2845528 35.7154472,0 23,0 L23,0 Z" id="Shape"></path>
                    <path d="M23,7.94715447 C23.4674797,7.94715447 23.9349593,8.13414634 24.2154472,8.60162602 L36.4634146,29.8252033 C37.0243902,30.7601626 36.3699187,31.8821138 35.2479675,31.8821138 L10.7520325,31.8821138 C9.6300813,31.8821138 8.97560976,30.7601626 9.53658537,29.8252033 L21.7845528,8.60162602 C22.0650407,8.13414634 22.5325203,7.94715447 23,7.94715447 M23,6.54471545 C21.9715447,6.54471545 21.0365854,7.10569106 20.5691057,7.94715447 L8.32113821,29.0772358 C7.85365854,29.9186992 7.85365854,31.0406504 8.32113821,31.8821138 C8.78861789,32.7235772 9.72357724,33.2845528 10.7520325,33.2845528 L35.2479675,33.2845528 C36.2764228,33.2845528 37.2113821,32.7235772 37.6788618,31.8821138 C38.1463415,31.0406504 38.1463415,29.9186992 37.6788618,29.0772358 L25.4308943,7.94715447 C24.9634146,7.01219512 24.0284553,6.54471545 23,6.54471545 L23,6.54471545 Z" id="Shape"></path>
                    <path d="M21.8780488,24.9634146 L20.7560976,15.5203252 L25.2439024,15.5203252 L24.1219512,24.8699187 L21.8780488,24.8699187 L21.8780488,24.9634146 Z M21.1300813,26.2723577 L24.8699187,26.2723577 L24.8699187,30.0121951 L21.1300813,30.0121951 L21.1300813,26.2723577 Z" id="Shape"></path>
                </g>
            </g>
        </g>
    </g>
</svg>