<?xml version="1.0" encoding="UTF-8"?>
<svg width="26px" height="26px" viewBox="0 0 26 26" version="1.1" xmlns="http://www.w3.org/2000/svg" xmlns:xlink="http://www.w3.org/1999/xlink">
    <title>4FCA92E5-73A0-43AF-8D0E-24A4E864BD9D</title>
    <g id="Platform" stroke="none" stroke-width="1" fill="none" fill-rule="evenodd">
        <g id="Navigation-drop-down-grid-view" transform="translate(-857.000000, -871.000000)" fill="hsl(220deg 86% 35%)" fill-rule="nonzero">
            <g id="blog-copy" transform="translate(857.000000, 871.000000)">
                <path d="M25.0408438,21.734375 L24.984375,21.734375 L24.984375,11.6254023 L25.8490781,10.7606992 C26.0473789,10.5623984 26.0473789,10.2408516 25.8490781,10.0425 L23.694582,7.88800391 C23.4962812,7.68970313 23.1747344,7.68970313 22.9763828,7.88800391 L22.546875,8.3175625 L22.546875,0.5078125 C22.546875,0.227347656 22.3195273,0 22.0390625,0 L15.2851562,0 C15.0046914,0 14.7773437,0.227347656 14.7773437,0.5078125 C14.7773437,0.788277344 15.0046914,1.015625 15.2851562,1.015625 L21.53125,1.015625 L21.53125,9.3331875 L17.8642852,13.0001523 L6.44388672,13.0001523 C6.16342187,13.0001523 5.93607422,13.2275 5.93607422,13.5079648 C5.93607422,13.7884297 6.16342187,14.0157773 6.44388672,14.0157773 L16.8486602,14.0157773 L14.6145391,16.2498984 L6.44388672,16.2498984 C6.16342187,16.2498984 5.93607422,16.4772461 5.93607422,16.7577109 C5.93607422,17.0381758 6.16342187,17.2655234 6.44388672,17.2655234 L13.5989141,17.2655234 L12.8267344,18.0377031 C12.8267344,18.0377031 12.8266328,18.0380078 12.826582,18.0380586 C12.782707,18.0819336 12.7466016,18.1339844 12.720957,18.1923828 L11.1634453,21.734375 L4.46875,21.734375 L4.46875,1.015625 L10.7148437,1.015625 C10.9953086,1.015625 11.2226562,0.788277344 11.2226562,0.5078125 C11.2226562,0.227347656 10.9953086,0 10.7148437,0 L3.9609375,0 C3.68047266,0 3.453125,0.227347656 3.453125,0.5078125 L3.453125,8.33071484 C2.10000781,8.38428906 1.015625,9.50122266 1.015625,10.8671875 L1.015625,17.3079258 L1.015625,21.734375 L0.959207031,21.734375 C0.430320312,21.734375 -2.88657986e-15,22.1646953 -2.88657986e-15,22.6936328 C-2.88657986e-15,24.5167813 1.48321875,26 3.30641797,26 L22.6936328,26 C24.5167812,26 26.0000508,24.5167305 26.0000508,22.693582 C26.0000508,22.1646953 25.5697305,21.734375 25.0408437,21.734375 L25.0408438,21.734375 Z M23.3355078,8.96527734 L24.7718555,10.401625 L15.3403555,19.8330742 L13.9040078,18.3967266 L23.3355078,8.96527734 Z M23.96875,12.6410273 L23.96875,21.734375 L22.546875,21.734375 L22.546875,14.0629023 L23.96875,12.6410273 Z M21.53125,15.0785273 L21.53125,21.734375 L13.9113203,21.734375 L15.5448008,21.0158711 C15.6008633,20.9912422 15.6535234,20.9562031 15.6994297,20.9103477 L21.53125,15.0785273 Z M13.3518125,19.2808789 L14.4562539,20.3853203 L12.4850781,21.2521055 L13.3518125,19.2808789 Z M2.03125,17.3079766 L2.03125,10.8671875 C2.03125,10.0613398 2.66032813,9.40001562 3.453125,9.34750781 L3.453125,21.734375 L2.03125,21.734375 L2.03125,17.3079766 Z M22.6936328,24.984375 L3.30641797,24.984375 C2.06217578,24.984375 1.04644922,23.9871328 1.01633594,22.75 L24.9837656,22.75 C24.9536523,23.9871836 23.9379258,24.984375 22.6936328,24.984375 Z" id="XMLID_85_"></path>
                <path d="M6.44388672,9.75035547 C6.16342187,9.75035547 5.93607422,9.97770312 5.93607422,10.258168 C5.93607422,10.5386328 6.16342187,10.7659805 6.44388672,10.7659805 L10.677875,10.7659805 C10.9583398,10.7659805 11.1856875,10.5386328 11.1856875,10.258168 C11.1856875,9.97770312 10.9583398,9.75035547 10.677875,9.75035547 L6.44388672,9.75035547 Z" id="XMLID_393_"></path>
                <path d="M14.5720859,7.00776172 C14.5720859,6.72729687 14.3447383,6.49994922 14.0642734,6.49994922 L6.44388672,6.49994922 C6.16342188,6.49994922 5.93607422,6.72729687 5.93607422,7.00776172 C5.93607422,7.28822656 6.16342188,7.51557422 6.44388672,7.51557422 L14.0642734,7.51557422 C14.3447383,7.51557422 14.5720859,7.28822656 14.5720859,7.00776172 Z" id="XMLID_394_"></path>
                <path d="M20.0639258,7.00776172 C20.0639258,6.72729687 19.8365781,6.49994922 19.5561133,6.49994922 L16.9080742,6.49994922 C16.6276094,6.49994922 16.4002617,6.72729687 16.4002617,7.00776172 C16.4002617,7.28822656 16.6276094,7.51557422 16.9080742,7.51557422 L19.5561133,7.51557422 C19.8365781,7.51557422 20.0639258,7.28822656 20.0639258,7.00776172 Z" id="XMLID_395_"></path>
                <path d="M6.44388672,4.26577734 L8.38027734,4.26577734 C8.66074219,4.26577734 8.88808984,4.03842969 8.88808984,3.75796484 C8.88808984,3.4775 8.66074219,3.25015234 8.38027734,3.25015234 L6.44388672,3.25015234 C6.16342187,3.25015234 5.93607422,3.4775 5.93607422,3.75796484 C5.93607422,4.03842969 6.16342187,4.26577734 6.44388672,4.26577734 L6.44388672,4.26577734 Z" id="XMLID_396_"></path>
                <path d="M10.7162148,3.75796484 C10.7162148,4.03842969 10.9435625,4.26577734 11.2240273,4.26577734 L19.5561133,4.26577734 C19.8365781,4.26577734 20.0639258,4.03842969 20.0639258,3.75796484 C20.0639258,3.4775 19.8365781,3.25015234 19.5561133,3.25015234 L11.2240273,3.25015234 C10.9435625,3.25015234 10.7162148,3.4775 10.7162148,3.75796484 Z" id="XMLID_751_"></path>
                <path d="M13,1.015625 C13.1335547,1.015625 13.2645703,0.961289063 13.3590234,0.866835937 C13.4534766,0.772382813 13.5078125,0.641367187 13.5078125,0.5078125 C13.5078125,0.374257813 13.4534766,0.243242188 13.3590234,0.148789063 C13.2645703,0.0543359375 13.1335547,0 13,0 C12.8664453,0 12.7354297,0.0543359375 12.6409766,0.148789063 C12.5465234,0.243292969 12.4921875,0.374257813 12.4921875,0.5078125 C12.4921875,0.641367187 12.5465234,0.772382813 12.6409766,0.866835937 C12.7354297,0.961289063 12.8664453,1.015625 13,1.015625 Z" id="XMLID_752_"></path>
                <path d="M13.521625,10.7659805 L18.2320938,10.7659805 C18.5125586,10.7659805 18.7399063,10.5386328 18.7399063,10.258168 C18.7399063,9.97770312 18.5125586,9.75035547 18.2320938,9.75035547 L13.521625,9.75035547 C13.2411602,9.75035547 13.0138125,9.97770312 13.0138125,10.258168 C13.0138125,10.5386328 13.2411602,10.7659805 13.521625,10.7659805 Z" id="XMLID_765_"></path>
            </g>
        </g>
    </g>
</svg>